<?xml version="1.0" encoding="UTF-8" standalone="no"?>
<!-- Generator: Adobe Illustrator 21.0.0, SVG Export Plug-In . SVG Version: 6.00 Build 0)  -->

<svg
   xmlns:dc="http://purl.org/dc/elements/1.1/"
   xmlns:cc="http://creativecommons.org/ns#"
   xmlns:rdf="http://www.w3.org/1999/02/22-rdf-syntax-ns#"
   xmlns:svg="http://www.w3.org/2000/svg"
   xmlns="http://www.w3.org/2000/svg"
   xmlns:xlink="http://www.w3.org/1999/xlink"
   xmlns:sodipodi="http://sodipodi.sourceforge.net/DTD/sodipodi-0.dtd"
   xmlns:inkscape="http://www.inkscape.org/namespaces/inkscape"
   version="1.1"
   id="Capa_1"
   x="0px"
   y="0px"
   viewBox="0 0 586.13759 302.5"
   xml:space="preserve"
   sodipodi:docname="urbanization.svg"
   inkscape:version="0.92.1 r15371"
   width="586.13757"
   height="302.5"><metadata
     id="metadata276"><rdf:RDF><cc:Work
         rdf:about=""><dc:format>image/svg+xml</dc:format><dc:type
           rdf:resource="http://purl.org/dc/dcmitype/StillImage" /></cc:Work></rdf:RDF></metadata><defs
     id="defs274" /><sodipodi:namedview
     pagecolor="#ffffff"
     bordercolor="#666666"
     borderopacity="1"
     objecttolerance="10"
     gridtolerance="10"
     guidetolerance="10"
     inkscape:pageopacity="0"
     inkscape:pageshadow="2"
     inkscape:window-width="1920"
     inkscape:window-height="1020"
     id="namedview272"
     showgrid="false"
     inkscape:zoom="0.45038168"
     inkscape:cx="686.61231"
     inkscape:cy="-29"
     inkscape:window-x="0"
     inkscape:window-y="31"
     inkscape:window-maximized="1"
     inkscape:current-layer="Capa_1" /><style
     type="text/css"
     id="style2">
	.st0{fill:#222221;}
	.st1{opacity:0.5;}
	.st2{clip-path:url(#SVGID_2_);}
	.st3{fill:url(#SVGID_3_);}
	.st4{fill:url(#SVGID_4_);}
	.st5{fill:url(#SVGID_5_);}
	.st6{fill:#FFFFFF;}
	.st7{clip-path:url(#SVGID_2_);fill:none;}
	.st8{fill-rule:evenodd;clip-rule:evenodd;fill:#901F23;}
	.st9{fill-rule:evenodd;clip-rule:evenodd;fill:#131313;}
	.st10{fill-rule:evenodd;clip-rule:evenodd;fill:#FFFFFF;}
	.st11{fill:#901F23;}
	.st12{opacity:0.7;clip-path:url(#SVGID_7_);}
	.st13{fill:url(#SVGID_8_);}
	.st14{fill:url(#SVGID_9_);}
	.st15{fill:url(#SVGID_10_);}
	.st16{clip-path:url(#SVGID_7_);}
	.st17{fill:url(#SVGID_11_);}
	.st18{fill:url(#SVGID_12_);}
	.st19{fill:url(#SVGID_13_);}
	.st20{fill:#B5C832;}
	.st21{fill:#55392D;}
	.st22{opacity:0.8;fill:#8AB656;}
	.st23{opacity:0.8;fill:#578937;}
	.st24{opacity:0.6;fill:#578937;}
	.st25{fill:#858585;}
</style><g
     id="g12"
     transform="translate(-152.8,-76)"><defs
       id="defs5"><rect
         id="SVGID_1_"
         x="-983.5"
         y="-1072"
         width="745.5"
         height="149.39999" /></defs><clipPath
       id="SVGID_2_"><use
         xlink:href="#SVGID_1_"
         style="overflow:visible"
         id="use7"
         x="0"
         y="0"
         width="100%"
         height="100%" /></clipPath><rect
       x="-1008.8"
       y="-1072"
       class="st7"
       width="1888"
       height="1077.3"
       clip-path="url(#SVGID_2_)"
       id="rect10"
       style="fill:none" /></g><g
     id="g269"
     transform="translate(-152.8,-76)"><g
       id="g151"><g
         id="g149"><path
           class="st0"
           d="m 289.9,236.6 c 0,-1.1 0.9,-2.2 2.2,-2.2 h 47.5 c 1.3,0 2.2,1 2.2,2.2 v 12.5 c 0,1.1 -0.9,2.2 -2.2,2.2 h -31.8 v 16.5 H 334 c 1.1,0 2.2,1 2.2,2.2 v 12.5 c 0,1.1 -1,2.2 -2.2,2.2 h -26.2 v 27.9 c 0,1.1 -1,2.2 -2.2,2.2 H 292 c -1.3,0 -2.2,-1 -2.2,-2.2 v -76 z"
           id="path135"
           inkscape:connector-curvature="0"
           style="fill:#222221" /><path
           class="st0"
           d="m 384.1,233.3 c 23,0 41.3,18.5 41.3,41.4 0,22.9 -18.4,41.2 -41.3,41.2 -23,0 -41.2,-18.3 -41.2,-41.2 0,-22.9 18.2,-41.4 41.2,-41.4 z m 0,64.3 c 12.6,0 23,-10.3 23,-22.8 0,-12.6 -10.3,-23.1 -23,-23.1 -12.5,0 -22.8,10.4 -22.8,23.1 0,12.4 10.3,22.8 22.8,22.8 z"
           id="path137"
           inkscape:connector-curvature="0"
           style="fill:#222221" /><path
           class="st0"
           d="m 433.6,236.6 c 0,-1.1 0.9,-2.2 2.2,-2.2 h 34.3 c 13.8,0 25,11.1 25,24.8 0,10.6 -7,19.1 -17,23.1 l 15.7,29.2 c 0.8,1.5 0,3.3 -2,3.3 h -15.3 c -0.9,0 -1.6,-0.6 -1.8,-1 l -15.3,-30.4 h -7.9 v 29.3 c 0,1.1 -1,2.2 -2.2,2.2 h -13.7 c -1.3,0 -2.2,-1 -2.2,-2.2 v -76.1 z m 35,32.2 c 4.7,0 8.7,-4.4 8.7,-9.2 0,-4.8 -4,-8.7 -8.7,-8.7 h -17 v 17.9 z"
           id="path139"
           inkscape:connector-curvature="0"
           style="fill:#222221" /><path
           class="st0"
           d="m 504.8,236.6 c 0,-1.1 0.9,-2.2 2.2,-2.2 h 47.5 c 1.3,0 2.2,1 2.2,2.2 v 12.5 c 0,1.1 -0.9,2.2 -2.2,2.2 h -31.8 v 14.2 h 26.2 c 1.1,0 2.2,1 2.2,2.2 v 12.5 c 0,1.3 -1,2.2 -2.2,2.2 h -26.2 v 15.5 h 31.8 c 1.3,0 2.2,1 2.2,2.2 v 12.5 c 0,1.1 -0.9,2.2 -2.2,2.2 H 507 c -1.3,0 -2.2,-1 -2.2,-2.2 z"
           id="path141"
           inkscape:connector-curvature="0"
           style="fill:#222221" /><path
           class="st0"
           d="m 561.7,303.9 5.4,-9.5 c 0.9,-1.5 3.1,-1.3 3.9,-0.7 0.5,0.2 8.7,6.3 16.3,6.3 4.6,0 7.9,-2.9 7.9,-6.9 0,-4.8 -4,-8.5 -11.8,-11.6 -9.9,-3.9 -22.3,-11.6 -22.3,-25.4 0,-11.4 8.8,-22.8 26.5,-22.8 11.9,0 21.1,6.1 24.6,8.6 1.4,0.8 1.1,2.9 0.7,3.7 l -5.9,8.8 c -0.8,1.3 -2.9,2.3 -3.9,1.5 -1,-0.6 -9.4,-6.9 -16.4,-6.9 -4.1,0 -7.2,2.8 -7.2,5.9 0,4.2 3.4,7.5 12.5,11.1 9,3.6 23.2,10.6 23.2,26.2 0,11.8 -10.2,23.8 -27.1,23.8 -14.9,0 -23.2,-6.2 -25.8,-8.8 -1.2,-1.3 -1.5,-1.7 -0.6,-3.3 z"
           id="path143"
           inkscape:connector-curvature="0"
           style="fill:#222221" /><path
           class="st0"
           d="m 633.8,251.3 h -16.4 c -1.3,0 -2.2,-1 -2.2,-2.2 v -12.5 c 0,-1.1 0.9,-2.2 2.2,-2.2 h 51 c 1.3,0 2.2,1 2.2,2.2 v 12.5 c 0,1.1 -0.9,2.2 -2.2,2.2 H 652 v 61.3 c 0,1.1 -1,2.2 -2.2,2.2 H 636 c -1.1,0 -2.2,-1 -2.2,-2.2 z"
           id="path145"
           inkscape:connector-curvature="0"
           style="fill:#222221" /><path
           class="st0"
           d="m 661.8,311.8 35.9,-77.3 c 0.3,-0.7 1.1,-1.3 2,-1.3 h 1.1 c 0.8,0 1.6,0.6 2,1.3 l 35.9,77.3 c 0.7,1.5 -0.2,3 -2,3 H 724 c -2.1,0 -3,-0.7 -4,-2.9 l -4.1,-9.1 h -31.2 l -4.1,9.2 c -0.6,1.4 -1.8,2.8 -4.1,2.8 h -12.6 c -1.9,0 -2.8,-1.5 -2.1,-3 z m 47.2,-24.6 -8.7,-18.9 h -0.1 l -8.6,18.9 z"
           id="path147"
           inkscape:connector-curvature="0"
           style="fill:#222221" /></g></g><path
       class="st20"
       d="M 583.2,329.9 V 370 c 0,0.8 -0.6,1.4 -1.4,1.4 H 184.2 c -0.8,0 -1.4,-0.6 -1.4,-1.4 V 180.2 c 0,-0.8 0.6,-1.4 1.4,-1.4 h 397.6 c 0.8,0 1.4,0.6 1.4,1.4 v 40.6 c 0,0.8 0.6,1.4 1.4,1.4 h 4 c 0.8,0 1.4,-0.6 1.4,-1.4 V 173 c 0,-0.8 -0.6,-1.4 -1.4,-1.4 H 177.3 c -0.8,0 -1.4,0.6 -1.4,1.4 v 204.1 c 0,0.8 0.6,1.4 1.4,1.4 h 411.3 c 0.8,0 1.4,-0.6 1.4,-1.4 v -47.2 c 0,-0.8 -0.6,-1.4 -1.4,-1.4 h -4 c -0.8,0 -1.4,0.6 -1.4,1.4 z"
       id="path153"
       inkscape:connector-curvature="0"
       style="fill:#b5c832" /><g
       id="g241"><g
         id="g207"><g
           id="g157"><path
             class="st21"
             d="M 217.9,371.3 V 162.8 c 0,-1.1 0.9,-2 2,-2 1.1,0 2,0.9 2,2 v 208.5 z"
             id="path155"
             inkscape:connector-curvature="0"
             style="fill:#55392d" /></g><g
           id="g161"><path
             class="st21"
             d="m 222.6,299.5 c -0.2,0 -0.4,0 -0.7,-0.2 -0.7,-0.4 -1,-1.2 -0.7,-2 l 81.3,-163.7 c 0.4,-0.7 1.2,-1 2,-0.7 0.7,0.4 1,1.2 0.7,2 L 224,298.7 c -0.3,0.5 -0.8,0.8 -1.4,0.8 z"
             id="path159"
             inkscape:connector-curvature="0"
             style="fill:#55392d" /></g><g
           id="g165"><path
             class="st21"
             d="m 250.8,247 c -0.2,0 -0.4,-0.1 -0.6,-0.3 -0.3,-0.3 -0.2,-0.8 0.1,-1 l 110.5,-92.1 c 0.3,-0.3 0.8,-0.2 1,0.1 0.3,0.3 0.2,0.8 -0.1,1 l -110.5,92.1 c -0.1,0.1 -0.2,0.2 -0.4,0.2 z"
             id="path163"
             inkscape:connector-curvature="0"
             style="fill:#55392d" /></g><g
           id="g169"><path
             class="st21"
             d="m 227.9,281.4 c -0.3,0 -0.5,-0.1 -0.6,-0.4 L 182,203.5 c -0.2,-0.4 -0.1,-0.8 0.3,-1 0.4,-0.2 0.8,-0.1 1,0.3 l 45.2,77.5 c 0.2,0.4 0.1,0.8 -0.3,1 -0.1,0.1 -0.2,0.1 -0.3,0.1 z"
             id="path167"
             inkscape:connector-curvature="0"
             style="fill:#55392d" /></g><g
           id="g173"><path
             class="st21"
             d="m 223,234.7 c -0.2,0 -0.4,-0.1 -0.5,-0.2 -0.5,-0.3 -0.6,-0.9 -0.3,-1.4 l 75.1,-115 c 0.3,-0.5 0.9,-0.6 1.4,-0.3 0.5,0.3 0.6,0.9 0.3,1.4 l -75.1,115 c -0.3,0.4 -0.6,0.5 -0.9,0.5 z"
             id="path171"
             inkscape:connector-curvature="0"
             style="fill:#55392d" /></g><g
           id="g177"><path
             class="st21"
             d="m 204.9,232 c -0.4,0 -0.7,-0.3 -0.7,-0.7 l -7,-69.2 c 0,-0.4 0.3,-0.8 0.7,-0.8 0.4,0 0.8,0.3 0.8,0.7 l 7,69.2 c 0,0.4 -0.3,0.8 -0.8,0.8 0.1,0 0,0 0,0 z"
             id="path175"
             inkscape:connector-curvature="0"
             style="fill:#55392d" /></g><g
           id="g181"><path
             class="st21"
             d="m 198.7,190.7 c -0.2,0 -0.5,-0.1 -0.6,-0.3 l -31.6,-44.5 c -0.2,-0.3 -0.2,-0.8 0.2,-1 0.3,-0.2 0.8,-0.2 1,0.2 l 31.6,44.5 c 0.2,0.3 0.2,0.8 -0.2,1 -0.1,0 -0.3,0.1 -0.4,0.1 z"
             id="path179"
             inkscape:connector-curvature="0"
             style="fill:#55392d" /></g><g
           id="g185"><path
             class="st21"
             d="m 212.6,202.6 c -0.1,0 -0.1,0 0,0 -0.3,0 -0.5,-0.3 -0.5,-0.6 l 9.4,-60.5 c 0,-0.3 0.3,-0.4 0.6,-0.4 0.3,0 0.4,0.3 0.4,0.6 l -9.4,60.5 c -0.1,0.2 -0.3,0.4 -0.5,0.4 z"
             id="path183"
             inkscape:connector-curvature="0"
             style="fill:#55392d" /></g><g
           id="g189"><path
             class="st21"
             d="m 179.5,160.9 c -0.1,0 -0.1,0 -0.2,0 -0.3,-0.1 -0.4,-0.4 -0.3,-0.6 l 17,-46.2 c 0.1,-0.3 0.4,-0.4 0.6,-0.3 0.3,0.1 0.4,0.4 0.3,0.6 l -17,46.2 c 0,0.2 -0.2,0.3 -0.4,0.3 z"
             id="path187"
             inkscape:connector-curvature="0"
             style="fill:#55392d" /></g><g
           id="g193"><path
             class="st21"
             d="m 255.3,227.6 c -0.2,0 -0.4,-0.1 -0.5,-0.3 l -19.1,-62.9 c -0.1,-0.3 0.1,-0.5 0.3,-0.6 0.3,-0.1 0.5,0.1 0.6,0.3 l 19.1,62.9 c 0.1,0.3 -0.1,0.5 -0.3,0.6 0,0 0,0 -0.1,0 z"
             id="path191"
             inkscape:connector-curvature="0"
             style="fill:#55392d" /></g><g
           id="g197"><path
             class="st21"
             d="m 258.4,171.7 c -0.2,0 -0.4,-0.1 -0.5,-0.3 l -18.4,-55.9 c -0.1,-0.3 0.1,-0.5 0.3,-0.6 0.3,-0.1 0.5,0.1 0.6,0.3 l 18.4,55.9 c 0.1,0.3 -0.1,0.5 -0.3,0.6 0,0 0,0 -0.1,0 z"
             id="path195"
             inkscape:connector-curvature="0"
             style="fill:#55392d" /></g><g
           id="g201"><path
             class="st21"
             d="m 324.8,148 c -0.2,0 -0.4,-0.1 -0.5,-0.3 L 304.5,83.1 c -0.1,-0.3 0.1,-0.5 0.3,-0.6 0.3,-0.1 0.5,0.1 0.6,0.3 l 19.8,64.6 c 0.1,0.3 -0.1,0.5 -0.3,0.6 0,0 0,0 -0.1,0 z"
             id="path199"
             inkscape:connector-curvature="0"
             style="fill:#55392d" /></g><g
           id="g205"><path
             class="st21"
             d="m 311.3,193.2 c 0,0 -0.1,0 -0.1,0 -0.3,-0.1 -0.4,-0.3 -0.3,-0.6 L 337,94.3 c 0.1,-0.3 0.3,-0.4 0.6,-0.3 0.3,0.1 0.4,0.3 0.3,0.6 l -26.1,98.3 c -0.1,0.2 -0.3,0.3 -0.5,0.3 z"
             id="path203"
             inkscape:connector-curvature="0"
             style="fill:#55392d" /></g></g><g
         id="g239"><polygon
           class="st22"
           points="215.7,166.3 208.4,199.3 198.3,208.4 152.8,140.9 189.6,111.4 "
           id="polygon209"
           style="opacity:0.8;fill:#8ab656" /><polygon
           class="st22"
           points="227.9,102 206.3,130.5 229.9,185.4 237.9,228.9 250.4,230.6 237.2,160.4 "
           id="polygon211"
           style="opacity:0.8;fill:#8ab656" /><polygon
           class="st22"
           points="283.1,192 276.5,107.6 272,97.2 259.5,209.8 "
           id="polygon213"
           style="opacity:0.8;fill:#8ab656" /><polygon
           class="st23"
           points="286.2,134 294.2,166 290.1,186.8 283.1,192 276.5,107.6 "
           id="polygon215"
           style="opacity:0.8;fill:#578937" /><path
           class="st22"
           d="m 276.5,91.6 c -1,0 28.8,5.2 28.8,5.2 L 288.7,77 l 10.1,-1 60.8,18 -55.3,73.3 -10.8,-51.8 z"
           id="path217"
           inkscape:connector-curvature="0"
           style="opacity:0.8;fill:#8ab656" /><polygon
           class="st24"
           points="308.8,156.2 315.8,117 313.3,84.3 349.1,99.2 "
           id="polygon219"
           style="opacity:0.6;fill:#578937" /><polygon
           class="st22"
           points="365.8,115.9 366.2,137.8 364.8,180.6 333.1,183 296.3,210.8 296.7,180.9 342.9,153.1 328.6,151.7 338.7,136.8 "
           id="polygon221"
           style="opacity:0.8;fill:#8ab656" /><path
           class="st23"
           d="m 296.3,210.8 36.8,-27.8 31.6,-2.4 -0.3,14.9 c 0,0 -32,2.8 -33,2.8 -1,0 -35.1,12.5 -35.1,12.5 z"
           id="path223"
           inkscape:connector-curvature="0"
           style="opacity:0.8;fill:#578937" /><polyline
           class="st22"
           points="287.6,195.2 282.1,223.3 281.4,243.5 262.3,270.2 255.3,254.2 265.7,230.3 271.3,211.8      286.6,196.6    "
           id="polyline225"
           style="opacity:0.8;fill:#8ab656" /><polygon
           class="st22"
           points="226.1,199.3 228.5,232.7 243.1,238.6 216.4,264 202.5,278.9 188.2,227.8 212.2,206.6 "
           id="polygon227"
           style="opacity:0.8;fill:#8ab656" /><polygon
           class="st22"
           points="324.5,215 331.1,204.2 327.6,204.5 316.5,210.5 321,213.9 "
           id="polygon229"
           style="opacity:0.8;fill:#8ab656" /><polygon
           class="st22"
           points="352.6,202.5 352.6,208 345.7,209.8 344.6,215.7 337,209.1 346.4,202.8 "
           id="polygon231"
           style="opacity:0.8;fill:#8ab656" /><polygon
           class="st22"
           points="372.4,220.5 363,213.6 368.9,205.9 373.1,210.5 "
           id="polygon233"
           style="opacity:0.8;fill:#8ab656" /><polygon
           class="st24"
           points="189.6,111.4 182.1,132.9 196.9,150.9 208.4,199.3 215.7,166.3 "
           id="polygon235"
           style="opacity:0.6;fill:#578937" /><polygon
           class="st23"
           points="250.4,230.6 237.2,160.4 227.9,102 266.1,102 "
           id="polygon237"
           style="opacity:0.8;fill:#578937" /></g></g><g
       id="g267"><g
         id="g265"><path
           class="st25"
           d="m 290.2,328.7 c 0,-0.4 0.3,-0.8 0.8,-0.8 h 11 c 4.9,0 8.8,3.9 8.8,8.7 0,3.7 -2.5,6.8 -6,8.2 l 5.6,10.3 c 0.3,0.5 0,1.2 -0.7,1.2 h -3.2 c -0.3,0 -0.6,-0.2 -0.6,-0.4 l -5.4,-10.7 h -6.1 v 10.3 c 0,0.4 -0.4,0.8 -0.8,0.8 H 291 c -0.4,0 -0.8,-0.4 -0.8,-0.8 z m 11.5,13 c 2.6,0 4.9,-2.2 4.9,-5 0,-2.6 -2.3,-4.8 -4.9,-4.8 h -7.2 v 9.9 h 7.2 z"
           id="path243"
           inkscape:connector-curvature="0"
           style="fill:#858585" /><path
           class="st25"
           d="m 319.8,328.7 c 0,-0.4 0.3,-0.8 0.8,-0.8 h 16.2 c 0.4,0 0.8,0.4 0.8,0.8 v 2.3 c 0,0.4 -0.3,0.8 -0.8,0.8 H 324 v 8.3 h 10.8 c 0.4,0 0.8,0.4 0.8,0.8 v 2.3 c 0,0.4 -0.4,0.8 -0.8,0.8 H 324 v 8.7 h 12.8 c 0.4,0 0.8,0.4 0.8,0.8 v 2.2 c 0,0.4 -0.3,0.8 -0.8,0.8 h -16.2 c -0.4,0 -0.8,-0.4 -0.8,-0.8 z"
           id="path245"
           inkscape:connector-curvature="0"
           style="fill:#858585" /><path
           class="st25"
           d="m 344.5,352.2 c 0.4,-0.5 0.7,-1.1 1.1,-1.7 0.4,-0.5 0.9,-0.7 1.4,-0.3 0.2,0.2 3.4,2.8 6.5,2.8 2.8,0 4.6,-1.7 4.6,-3.8 0,-2.4 -2.1,-4 -6.1,-5.6 -4.1,-1.7 -7.4,-3.9 -7.4,-8.6 0,-3.2 2.4,-7.5 8.9,-7.5 4.1,0 7.1,2.1 7.5,2.4 0.3,0.2 0.6,0.8 0.2,1.4 -0.3,0.5 -0.7,1.1 -1,1.5 -0.3,0.5 -0.9,0.8 -1.4,0.4 -0.3,-0.2 -3.1,-2 -5.5,-2 -3.4,0 -4.6,2.1 -4.6,3.7 0,2.3 1.8,3.7 5.2,5.1 4.7,1.9 8.7,4.1 8.7,9.1 0,4.2 -3.8,7.7 -9,7.7 -4.9,0 -8.1,-2.6 -8.7,-3.2 -0.5,-0.4 -0.8,-0.7 -0.4,-1.4 z"
           id="path247"
           inkscape:connector-curvature="0"
           style="fill:#858585" /><path
           class="st25"
           d="m 370.7,328.7 c 0,-0.4 0.4,-0.8 0.8,-0.8 h 2.7 c 0.4,0 0.8,0.4 0.8,0.8 v 26.8 c 0,0.4 -0.4,0.8 -0.8,0.8 h -2.7 c -0.4,0 -0.8,-0.4 -0.8,-0.8 z"
           id="path249"
           inkscape:connector-curvature="0"
           style="fill:#858585" /><path
           class="st25"
           d="m 385.5,328.7 c 0,-0.4 0.3,-0.8 0.7,-0.8 h 9.3 c 7.8,0 14.2,6.4 14.2,14.1 0,7.9 -6.4,14.2 -14.2,14.2 h -9.3 c -0.4,0 -0.7,-0.4 -0.7,-0.8 z m 9.4,23.7 c 6,0 10.3,-4.4 10.3,-10.4 0,-6 -4.3,-10.3 -10.3,-10.3 h -5.4 v 20.7 z"
           id="path251"
           inkscape:connector-curvature="0"
           style="fill:#858585" /><path
           class="st25"
           d="m 418.2,328.7 c 0,-0.4 0.3,-0.8 0.8,-0.8 h 16.2 c 0.4,0 0.8,0.4 0.8,0.8 v 2.3 c 0,0.4 -0.3,0.8 -0.8,0.8 h -12.8 v 8.3 h 10.8 c 0.4,0 0.8,0.4 0.8,0.8 v 2.3 c 0,0.4 -0.4,0.8 -0.8,0.8 h -10.8 v 8.7 h 12.8 c 0.4,0 0.8,0.4 0.8,0.8 v 2.2 c 0,0.4 -0.3,0.8 -0.8,0.8 H 419 c -0.4,0 -0.8,-0.4 -0.8,-0.8 z"
           id="path253"
           inkscape:connector-curvature="0"
           style="fill:#858585" /><path
           class="st25"
           d="m 444.7,328.2 c 0,-0.4 0.4,-0.7 0.8,-0.7 h 1 l 17.6,20.4 v 0 -19.2 c 0,-0.4 0.3,-0.8 0.8,-0.8 h 2.6 c 0.4,0 0.8,0.4 0.8,0.8 V 356 c 0,0.4 -0.4,0.7 -0.8,0.7 h -1.1 l -17.6,-20.9 v 0 19.7 c 0,0.4 -0.3,0.8 -0.8,0.8 h -2.6 c -0.4,0 -0.8,-0.4 -0.8,-0.8 v -27.3 z"
           id="path255"
           inkscape:connector-curvature="0"
           style="fill:#858585" /><path
           class="st25"
           d="m 491.3,327.5 c 4.1,0 7.1,1.4 9.8,3.8 0.4,0.3 0.4,0.8 0,1.1 l -1.8,1.8 c -0.3,0.4 -0.6,0.4 -1,0 -1.9,-1.7 -4.5,-2.7 -7,-2.7 -5.8,0 -10.2,4.9 -10.2,10.5 0,5.6 4.4,10.5 10.2,10.5 3,0 5,-1.2 7,-2.7 0.4,-0.3 0.7,-0.2 1,0 l 1.9,1.8 c 0.3,0.3 0.2,0.8 0,1.1 -2.8,2.7 -6.2,3.9 -9.9,3.9 -8.1,0 -14.6,-6.4 -14.6,-14.6 0,-8 6.5,-14.5 14.6,-14.5 z"
           id="path257"
           inkscape:connector-curvature="0"
           style="fill:#858585" /><path
           class="st25"
           d="m 509.6,328.7 c 0,-0.4 0.4,-0.8 0.8,-0.8 h 2.7 c 0.4,0 0.8,0.4 0.8,0.8 v 26.8 c 0,0.4 -0.4,0.8 -0.8,0.8 h -2.7 c -0.4,0 -0.8,-0.4 -0.8,-0.8 z"
           id="path259"
           inkscape:connector-curvature="0"
           style="fill:#858585" /><path
           class="st25"
           d="m 520.5,355.2 12.4,-27.3 c 0.1,-0.2 0.5,-0.4 0.7,-0.4 h 0.4 c 0.2,0 0.6,0.2 0.7,0.4 l 12.4,27.3 c 0.2,0.5 -0.1,1.1 -0.7,1.1 h -2.6 c -0.5,0 -0.8,-0.2 -0.9,-0.6 l -2.5,-5.6 h -13.3 c -0.8,1.9 -1.7,3.7 -2.5,5.6 -0.1,0.3 -0.4,0.6 -0.9,0.6 h -2.6 c -0.5,0 -0.8,-0.5 -0.6,-1.1 z m 18.4,-8.6 -5,-11.1 h -0.2 l -4.9,11.1 z"
           id="path261"
           inkscape:connector-curvature="0"
           style="fill:#858585" /><path
           class="st25"
           d="m 553.8,328.7 c 0,-0.4 0.3,-0.8 0.8,-0.8 h 2.7 c 0.4,0 0.8,0.4 0.8,0.8 v 23.8 h 11 c 0.4,0 0.8,0.4 0.8,0.8 v 2.2 c 0,0.4 -0.3,0.8 -0.8,0.8 h -14.4 c -0.4,0 -0.8,-0.4 -0.8,-0.8 v -26.8 z"
           id="path263"
           inkscape:connector-curvature="0"
           style="fill:#858585" /></g></g></g></svg>